<svg height="48" viewBox="0 0 48 48" width="48" xmlns="http://www.w3.org/2000/svg"><g fill="none"><path d="m24 48c23.815 0 24-10.745 24-24s-.185-24-24-24c-23.815 0-24 10.745-24 24s.185 24 24 24z" fill="#1da1f2"/><path d="m20.5390156 34.5463918c9.0564226 0 14.0120048-7.5222827 14.0120048-14.0345402 0-.2116243 0-.4232486-.0096038-.6348729.9603841-.6925887 1.7959183-1.5679439 2.4585834-2.5587305-.8835534.3943908-1.8343337.6541116-2.8331333.7791623 1.0180072-.6060151 1.7959184-1.5775631 2.1704682-2.7318776-.9507803.567538-2.0072028.971548-3.1308523 1.1927916-.9027611-.9619287-2.180072-1.5583245-3.5918367-1.5583245-2.7178872 0-4.9267707 2.2124361-4.9267707 4.9346944 0 .3847715.0480192.7599237.1248499 1.1254566-4.0912365-.202005-7.7214886-2.1739589-10.1512605-5.155938-.422569.7310658-.6626651 1.5775631-.6626651 2.4817761 0 1.7122332.8739496 3.2224613 2.1896759 4.1074357-.8067227-.0288579-1.5654262-.2501015-2.2280912-.6156344v.067335c0 2.3855833 1.6998799 4.386395 3.9471788 4.8385015-.4129652.1154315-.845138.1731472-1.2965186.1731472-.3169268 0-.6242497-.0288579-.9219688-.0865736.6242497 1.9623346 2.4489796 3.3859891 4.6002401 3.4244663-1.6902761 1.3274616-3.8127251 2.1162432-6.117647 2.1162432-.3937575 0-.787515-.0192386-1.1716687-.067335 2.1704682 1.3851773 4.7635054 2.2028168 7.5390156 2.2028168" fill="#fff"/></g></svg>