<svg height="48" viewBox="0 0 48 48" width="48" xmlns="http://www.w3.org/2000/svg"><g fill="none"><path d="m24 48c23.815 0 24-10.745 24-24s-.185-24-24-24c-23.815 0-24 10.745-24 24s.185 24 24 24z" fill="#ea4c89"/><path d="m16.5571059 30.8485911c1.8146088-2.5933368 3.9138265-4.4235347 6.2576162-5.5686525.7547408-.3687478 1.5257908-.6624729 2.3127958-.8867461-.2787818-.6649264-.5746728-1.3200372-.8887646-1.9677155-.4008292.130001-.8142471.2515634-1.2411357.3645549-2.5937706.6865349-5.6066382 1.0302471-9.1094795.986318-.0016131.0743551-.0024238.1489079-.0024238.2236501 0 2.6418019 1.0128405 5.0470422 2.6713916 6.8485911zm1.5511489 1.3734325c1.6591238 1.191006 3.6935409 1.8922621 5.8917452 1.8922621 1.3432116 0 2.6252682-.261836 3.7979135-.737252-.4984725-2.529342-1.1264429-4.8553188-1.9200246-7.0567696-.7382826.1976557-1.4580724.4650066-2.1601166.8080081-2.0796242 1.016053-3.9594657 2.6760881-5.6095175 5.0937514zm15.9991074-7.8442763c.0046022-.1253467.0069235-.2512759.0069235-.3777473 0-2.3655651-.8121016-4.5414537-2.172718-6.2640789-.1809035.1698749-.3933688.3688531-.4957644.4630004-.7740359.7116848-1.4792204 1.288939-2.3048095 1.8526735-.9064159.6189253-1.8889052 1.1674766-2.9712877 1.6420786.3582811.7471915.6937231 1.5040003 1.0077686 2.2735588.5744503-.0774653 1.1566963-.1227082 1.7466134-.1376867 1.6199726-.0411324 3.1447698.135257 4.9003624.4895355.0728757.0147063.1712117.0351507.2829117.0586661zm-.2844724 2.0424628c-.1632753-.0346389-.3090366-.0651958-.4053676-.0846354-1.6172548-.3263619-2.9987521-.4861743-4.4412185-.4495489-.3527395.0089563-.7015874.0302125-1.0466103.0642992.7100817 2.0202212 1.2893474 4.1402987 1.7616147 6.4119511 2.0291631-1.383711 3.5286668-3.4867094 4.1315817-5.942066zm-18.2596792 6.1132894-.0609819-.0357057c.0030784-.0052577.0061579-.0105128.0092382-.0157654-2.1696619-2.1713153-3.5114669-5.1699742-3.5114669-8.4820284 0-6.627417 5.372583-12 12-12s12 5.372583 12 12-5.372583 12-12 12c-3.2891126 0-6.2691564-1.3232808-8.4367894-3.4665005zm-1.4198555-10.8118012c3.222796.0243713 5.9760147-.2978178 8.3278917-.9203269.2756895-.0729712.5447671-.1496993.8075677-.2301493-1.0538847-1.9126948-2.2821393-3.7788784-3.7145168-5.6635045-2.7031351 1.321207-4.7299472 3.8123652-5.4209426 6.8139807zm16.3662311-5.4630605c-1.7591581-1.4807824-4.0301868-2.3729235-6.5095862-2.3729235-.8315984 0-1.6397561.1003616-2.4130216.2896335 1.3980403 1.8834806 2.6047324 3.7587778 3.6461047 5.6824105 1.008742-.4340431 1.9155289-.9366833 2.7478767-1.5050328.7340608-.5012366 1.3658158-1.0183825 2.0724954-1.6681367.092286-.084852.2843516-.2646782.456131-.425951z" fill="#fff"/></g></svg>