<svg height="48" viewBox="0 0 48 48" width="48" xmlns="http://www.w3.org/2000/svg"><g fill="none"><path d="m24 48c23.815 0 24-10.745 24-24s-.185-24-24-24c-23.815 0-24 10.745-24 24s.185 24 24 24z" fill="#ee5b01"/><g fill="#fff" transform="translate(14 14)"><path d="m.00519209 16.0166645-.0048393-14.9283662c-.00019484-.60105055.40639612-.82945809.90598077-.51154058l10.52223784 6.69596955v16.72727273l-9.8573973-6.0912368c-1.36608587-.7572914-1.56406543-1.2273119-1.56598201-1.8920987z" fill-opacity=".5"/><path d="m1.07239228 0c-.5922659 0-1.07239228.4875845-1.07239228 1.0934476v14.9065524c.02974853.5123686.00418067 1.0465669 1.60199116 1.921045 0 0-1.56563454-1.5488745.89800884-1.5574086h17.5v-16.3636364z"/></g></g></svg>