<svg height="48" viewBox="0 0 48 48" width="48" xmlns="http://www.w3.org/2000/svg"><g fill="none" fill-rule="evenodd"><path d="m24 48c23.815 0 24-10.745 24-24s-.185-24-24-24c-23.815 0-24 10.745-24 24s.185 24 24 24z" fill="#3884fe" fill-rule="nonzero"/><path d="m23.8901076 31.9990728c2.8525776.0142715 5.0546292-.1402174 5.6122877-.1874397s.7859981-.1734495 1.007342-.389523.3201137-.4685687.3551352-.8780438-.1408793-2.4262552-.4430251-3.2001722c-.3021458-.7739171-.7012858-1.5982709-1.8378957-2.0469485s-1.6173403-.3954869-2.2840685-.831611c-.4444855-.2907494-.6977344-.7182546-.7597467-1.2825156l-.0859341-.9189547c.247339.064897.4292614.1030724.5457671.1145261.1165057.0114538.3228963.0114538.6191717 0l-.3747851-.3471477c.4312946-.0894924.737636-.1615619.9190242-.2162085s.3322211-.1203095.4524987-.1969886c-.164336-.1203404-.2712341-.2120366-.3206944-.2750885-.0494602-.0630518-.1087258-.1831812-.1777968-.3603881.189104-1.2791089.2990886-2.0743648.329954-2.3857676.0323313-.326193.0808306-2.3045561-1.3911117-3.7331428-.8611556-.8357905-1.739904-1.1060358-2.5395789-.6289479-.0804537.0479988-.1783265.1497015-.2936183.305108-.6740275-.1766433-1.1834387-.1288173-1.5282335.143478-.3447948.2722954-.7216682.9215615-1.1306202 1.9477983-.1651888.4172817-.2718832.7525822-.3200831 1.0059018-.0481999.2533195-.0661793.5732544-.053938.9598046.0048699.378455.0228493.6696007.053938.873437.0466331.3057546.3200831.9234699.3200831 1.217107 0 .2936372-.0577966.4446926-.1172884.5507566-.0396612.0707093-.1722499.2253633-.3977661.463962.1104119.0524156.2290246.0900723.3558381.1129702.1268135.0228978.4706416.0687408 1.0314842.137529-.0086508.0632685-.0238289.1086946-.0455341.1362781-.0217051.0275836-.0964544.0964396-.2242476.206568.2344117.0271261.4104564.0389123.5281341.0353585.1176777-.0035537.289821-.0258549.5164297-.0669035l-.0735574.9189547c-.1627543.6341296-.3537733 1.0182629-.573057 1.1524-.677877.4146615-1.2519162.6184839-1.7966094.7651956-1.3145595.354073-2.0347313.8466513-2.3586038 1.6585847-.3165027.7934576-.9846973 3.2986208-.7259476 4.1310555.1724998.5549564.5224398.8621492 1.0498201.9215783 2.2028373.1154454 4.2551152.1779253 6.1568336.1874397zm-6.705565-6.4666073c-.3479761.3135674-.7329442 1.2257858-.8265356 1.4800228-.1631219.4431136-.5519549 1.4593386-.6813914 3.4525934h-6.36010141c-.57841968 0-1.13289633-.2476009-1.28297541-.5543869-.15007907-.3067861.23738837-2.2262426.49231806-2.5307711.25492968-.3045284.872853-.7180187 1.1568099-.8582442.18219689-.0899737 1.07485906-.5103515 1.78848056-.9169107.6182278-.3522121.8967767-.4972154 1.1515231-.7623278.1560333-.1623826.2538906-1.4042416.2538906-1.6824418-.1905389-.2073275-.3141532-.3621442-.3708429-.4644501-.2102638-.3794559-.22883-.7445889-.2641893-.9961088-.0933188-.0006479-.3608805-.2191067-.4140545-.5015475l-.0549012-.7023191c-.0448765-.3265551.1808834-.4970934.2888205-.4745177-.0742727-.8685164-.1029223-1.4456418-.0859488-1.7313762.0378048-.6364102.5302733-2.1184892 2.3675272-2.1184892 1.837254 0 2.5481662 1.2250695 2.5481662 2.1184892 0 .5956131-.0154022 1.1727385-.0462064 1.7313762.1910597 0 .2865896.0678086.2865896.2034257 0 .4967319-.0289096.7877103-.1237671 1.0512058-.0632384.1756637-.1861396.3277652-.3687038.4563046-.0681498.4123569-.142461.7052008-.2229336.8785319-.1623392.3496647-.3539975.4977255-.442475.5962131.0113028.6339216.0667412 1.5324952.2978503 1.7249696zm12.8710458-.2760342 1.0623191-.5509396c.2311091-.1924744.3855277-.4212013.4632557-.6861805s.1222434-.7144297.1335462-1.3483514c-.1542658-.1717189-.2664507-.3469249-.3365548-.5256181s-.1403814-.468578-.2108319-.8696542c-.1169818-.005414-.1917514-.0239221-.2243088-.0555241s-.057484-.1098646-.0747798-.2347877l-.1770328-.9382966c-.0326786-.1271766-.0326786-.2322047 0-.3150841s.1281168-.1243191.2863146-.1243191v-2.45981c.059733-.3504756.1489268-.5877446.2675814-.711807s.340702-.2122197.6661421-.2644717c.2573745-.2719665.6743525-.450081 1.250934-.5343434 1.42419-.2081331 2.3044399.6777384 2.4260798.8389633.1555301.206144.3113442.5980161.4674424 1.1756165.0244984.2360407.0244984.3910912 0 .4651517s-.0977502.1404556-.2197554.1991852l-.0618224 1.2915154c.1079371-.0225757.1885335.0015559.241789.0723949s.0798832.1685045.0798832.2929965l-.2187163.9592554c-.0380463.1555257-.0723649.2514726-.1029559.2878407-.030591.0363682-.0925458.0548762-.1858646.0555241-.1194284.5200687-.2043031.8418441-.2546241.9653265s-.1238478.2667976-.2205805.4299458l.1678649 1.3483514c.0397685.2365978.142215.4242917.3073397.5630817.1651247.1387899.4412629.3018437.8284145.4891614.5178764.2124506.9468338.402636 1.2868724.570556.2839569.1402255.9329254.4020839 1.4313895.7969847.3969023.31444.6783135.7554881.7490202.981404.1063375.3397605.1395967.8886662.0997777 1.6467173-.0669728.5583304-.204064.925237-.4112736 1.1007199-.2072095.1754828-.6203166.2745313-1.2393213.2971455h-6.3601013c-.2911391-1.8586153-.5182695-3.0094798-.6813914-3.4525934-.0935915-.254237-.2653575-.679373-.5228168-1.0272572-.1275136-.1722991-.3652585-.4152324-.7132347-.7287998z" fill="#fff"/></g></svg>