<svg height="48" viewBox="0 0 48 48" width="48" xmlns="http://www.w3.org/2000/svg"><g fill="none"><path d="m24 48c23.815 0 24-10.745 24-24s-.185-24-24-24c-23.815 0-24 10.745-24 24s.185 24 24 24z" fill="#7b16ff"/><path d="m14 15.3333333c0-.73625.5970833-1.3333333 1.3333333-1.3333333h1.1666667c9.665 0 17.5 7.835 17.5 17.5v1.1666667c0 .7366666-.5970833 1.3333333-1.3333333 1.3333333h-7.3333334c-.73625 0-1.3333333-.5966667-1.3333333-1.3333333v-1.1666667c0-4.1420833-3.3579167-7.5-7.5-7.5h-1.1666667c-.73625 0-1.3333333-.5966667-1.3333333-1.3333333z" fill="#fff"/></g></svg>