<svg height="48" viewBox="0 0 48 48" width="48" xmlns="http://www.w3.org/2000/svg"><g fill="none"><path d="m24 48c23.815 0 24-10.745 24-24s-.185-24-24-24c-23.815 0-24 10.745-24 24s.185 24 24 24z" fill="#FFF"/><path d="m14.8459384 17.9779541c.0298181-.3015184-.0825308-.5995358-.302521-.8024691l-2.2408964-2.7627866v-.4126984h6.9579832l5.3781513 12.0714285 4.7282914-12.0714285h6.6330531v.4126984l-1.9159664 1.8800706c-.1651773.1288587-.2471137.3406472-.2128851.5502645v13.8139331c-.0342286.2096173.0477078.4214056.2128851.5502645l1.8711485 1.8800705v.4126984h-9.4117647v-.4126984l1.9383754-1.9259259c.1904761-.1948855.1904761-.2522046.1904761-.5502645v-11.1657849l-5.3893557 14.0088183h-.7282913l-6.2745099-14.0088183v9.3888888c-.0523145.3947353.0757817.7921474.347339 1.0776015l2.5210084 3.1296296v.4126984h-7.1484594v-.4126984l2.5210084-3.1296296c.2695801-.2859274.390207-.6859757.32493-1.0776015z" fill="#12100e"/></g></svg>
